<svg xmlns="http://www.w3.org/2000/svg" xmlns:xlink="http://www.w3.org/1999/xlink" width="52" height="34.205" viewBox="0 0 52 34.205">
  <defs>
    <clipPath id="clip-path">
      <rect width="52" height="34.205" fill="none"/>
    </clipPath>
  </defs>
  <g id="Repeat_Grid_1" data-name="Repeat Grid 1" clip-path="url(#clip-path)">
    <g id="Group_675" data-name="Group 675" transform="translate(-4114 556)">
      <path id="Subtraction_1" data-name="Subtraction 1" d="M26.506,21H15.5V19.762h1.282V15.211a.622.622,0,0,1,.623-.619h5.2a.622.622,0,0,1,.623.619v4.551h3.279A1.974,1.974,0,0,0,28.483,17.8V11.47a3.175,3.175,0,0,1-.692.081,3.24,3.24,0,0,1-2.6-1.309,3.227,3.227,0,0,1-5.191,0,3.226,3.226,0,0,1-5.19,0,3.193,3.193,0,0,1-3.29,1.229V12.5H10.279V10.888A3.169,3.169,0,0,1,9,8.352l.946-5.675A3.206,3.206,0,0,1,13.126,0H26.882a3.208,3.208,0,0,1,3.181,2.677L31,8.248a3.276,3.276,0,0,1-1.271,2.632V17.8A3.217,3.217,0,0,1,26.506,21ZM25.2,7.732a.622.622,0,0,1,.622.62A1.969,1.969,0,0,0,28.841,10L28.853,10a.081.081,0,0,1,.02-.01,1.953,1.953,0,0,0,.891-1.635l-.931-5.471a1.967,1.967,0,0,0-1.951-1.642H13.126a1.965,1.965,0,0,0-1.95,1.641l-.939,5.574a1.89,1.89,0,0,0,.882,1.53.421.421,0,0,1,.063.032l.02.012a2.007,2.007,0,0,0,1.016.283,1.968,1.968,0,0,0,1.973-1.959.622.622,0,0,1,1.245,0,1.973,1.973,0,0,0,3.946,0,.622.622,0,0,1,1.245,0,1.973,1.973,0,0,0,3.946,0A.622.622,0,0,1,25.2,7.732Z" transform="translate(4135 -556)" fill="#fff"/>
      <path id="Shop_Icon" data-name="Shop Icon" d="M19.873,10.463a.178.178,0,0,0-.031.018,1.9,1.9,0,0,1-1.051.321A2.017,2.017,0,0,1,16.817,8.75a.623.623,0,1,0-1.245,0,1.975,1.975,0,1,1-3.946,0,.623.623,0,1,0-1.245,0A2.017,2.017,0,0,1,8.409,10.8,2.017,2.017,0,0,1,6.436,8.75a.623.623,0,1,0-1.245,0A2.017,2.017,0,0,1,3.218,10.8a1.931,1.931,0,0,1-1.016-.3.622.622,0,0,0-.083-.045,1.992,1.992,0,0,1-.882-1.6l.939-5.84A1.994,1.994,0,0,1,4.126,1.3H17.883a1.994,1.994,0,0,1,1.951,1.72l.93,5.732A2.073,2.073,0,0,1,19.873,10.463Zm-.389,8.181A2.022,2.022,0,0,1,17.506,20.7H14.227V15.935a.637.637,0,0,0-.623-.648H8.4a.637.637,0,0,0-.623.648V20.7H4.5a2.022,2.022,0,0,1-1.978-2.059V12.017a3.119,3.119,0,0,0,.694.083,3.178,3.178,0,0,0,2.6-1.372,3.141,3.141,0,0,0,5.191,0,3.141,3.141,0,0,0,5.191,0,3.175,3.175,0,0,0,2.6,1.372,3.044,3.044,0,0,0,.693-.084ZM9.026,20.7h3.957V16.585H9.026ZM21.063,2.8A3.253,3.253,0,0,0,17.883,0H4.126A3.253,3.253,0,0,0,.946,2.8L0,8.75a3.386,3.386,0,0,0,1.279,2.657v7.238A3.3,3.3,0,0,0,4.5,22h13a3.3,3.3,0,0,0,3.224-3.356V11.4A3.49,3.49,0,0,0,22,8.642Z" transform="translate(4128.727 -543.795)" fill="#fff" fill-rule="evenodd"/>
      <path id="Subtraction_3" data-name="Subtraction 3" d="M17.506,0H6.5V1.238H7.781V5.789a.622.622,0,0,0,.623.619h5.2a.622.622,0,0,0,.623-.619V1.238h3.279A1.974,1.974,0,0,1,19.483,3.2V9.53a3.175,3.175,0,0,0-.692-.081,3.24,3.24,0,0,0-2.6,1.309,3.227,3.227,0,0,0-5.191,0,3.226,3.226,0,0,0-5.19,0A3.193,3.193,0,0,0,2.524,9.529V8.5H1.279v1.612A3.169,3.169,0,0,0,0,12.648l.946,5.675A3.206,3.206,0,0,0,4.126,21H17.882a3.208,3.208,0,0,0,3.181-2.677L22,12.751a3.276,3.276,0,0,0-1.271-2.632V3.2A3.217,3.217,0,0,0,17.506,0ZM16.2,13.268a.622.622,0,0,0,.622-.62A1.968,1.968,0,0,1,19.841,11l.012.007a.081.081,0,0,0,.02.01,1.953,1.953,0,0,1,.891,1.635l-.931,5.471a1.967,1.967,0,0,1-1.951,1.642H4.126a1.965,1.965,0,0,1-1.95-1.641l-.939-5.574a1.89,1.89,0,0,1,.882-1.53.421.421,0,0,0,.063-.032l.02-.012a2.007,2.007,0,0,1,1.016-.283,1.968,1.968,0,0,1,1.973,1.959.622.622,0,0,0,1.245,0,1.973,1.973,0,0,1,3.946,0,.622.622,0,0,0,1.245,0,1.973,1.973,0,0,1,3.946,0A.622.622,0,0,0,16.2,13.268Z" transform="translate(4136 -535) rotate(180)" fill="#fff"/>
    </g>
  </g>
</svg>
